<svg width="40" height="119" viewBox="0 0 40 119" fill="none" xmlns="http://www.w3.org/2000/svg">
<path d="M0 33.1772V31.4577C0 27.1025 2.3531 23.0871 6.15275 20.9585C6.84548 20.5704 7.4981 20.1147 8.10107 19.5981L9.91915 18.0404C11.765 16.4589 13.2038 14.457 14.1144 12.2032C14.8439 10.3975 15.2189 8.46821 15.2189 6.5207V5.91311C15.2189 5.1275 15.8558 4.49063 16.6414 4.49063H22.3743C23.16 4.49063 23.7968 5.1275 23.7968 5.91311V7.33878C23.7968 8.75087 24.0122 10.1547 24.4355 11.5018C25.2809 14.1923 26.9255 16.5616 29.1504 18.2946L31.8213 20.375C35.9999 22.9109 38.7337 27.2729 39.1942 32.139L39.2924 33.1772V42.8975V99.5681C39.2924 110.3 30.5925 119 19.8605 119C9.1774 119 0.497805 110.376 0.428919 99.6934L0 33.1772Z" fill="#F3F3F3"/>
<rect x="15.4956" width="8.30122" height="6.17453" rx="2" fill="#FFD027"/>
<rect y="47.151" width="39.2924" height="44.9056" rx="2" fill="#FFD027"/>
<path d="M0 74.2394C0 73.2267 0.756879 72.3739 1.76235 72.2535L27.2864 69.199L36.9153 67.3504C38.1486 67.1137 39.2924 68.0588 39.2924 69.3146V90.0567C39.2924 91.1613 38.397 92.0567 37.2924 92.0567H2C0.895429 92.0567 0 91.1613 0 90.0567V74.2394Z" fill="#D9D9D9"/>
<path d="M0 73.4751C9.54245 73.4751 8.90582 72.7366 21.8915 69.0233C33.3986 65.7328 30.0306 65.7328 39.2924 65.7328" stroke="#CA0000" stroke-width="10"/>
<circle cx="19.6464" cy="68.4812" r="7.91981" fill="#F2F2F2" stroke="#F29F05"/>
<rect x="15.4956" y="4.49063" width="8.30122" height="0.561321" fill="#A97E4A"/>
</svg>
