<svg width="29" height="97" viewBox="0 0 29 97" fill="none" xmlns="http://www.w3.org/2000/svg">
<path d="M1 18.6048C1 13.082 5.47715 8.60484 11 8.60484H18.379C23.9019 8.60484 28.379 13.082 28.379 18.6048V87C28.379 92.5229 23.9019 97 18.379 97H11C5.47715 97 1 92.5229 1 87V18.6048Z" fill="#A97E4A"/>
<rect x="1" y="27.379" width="27.379" height="45.371" rx="2" fill="#FFD027"/>
<rect x="25.0166" y="38.6875" width="3.36234" height="2.882" rx="1.441" fill="#CA0000"/>
<rect x="1" y="38.6875" width="3.36234" height="2.882" rx="1.441" fill="#CA0000"/>
<g filter="url(#filter0_d_7_242)">
<rect x="2.92139" y="36.7661" width="24.0167" height="3.84267" rx="1.92134" fill="#CA0000"/>
</g>
<rect x="11.5605" y="1.56451" width="5.86694" height="9.77823" rx="2.93347" fill="#A97E4A"/>
<rect x="11.5605" width="5.86694" height="4.30242" rx="2" fill="#CA0000"/>
<rect x="11.5605" y="2.7379" width="5.86694" height="0.391129" fill="#A97E4A"/>
<rect x="7.25806" y="46.5444" width="14.8629" height="17.2097" rx="5" fill="#E7A525"/>
<defs>
<filter id="filter0_d_7_242" x="0.921387" y="36.7661" width="28.0166" height="7.84267" filterUnits="userSpaceOnUse" color-interpolation-filters="sRGB">
<feFlood flood-opacity="0" result="BackgroundImageFix"/>
<feColorMatrix in="SourceAlpha" type="matrix" values="0 0 0 0 0 0 0 0 0 0 0 0 0 0 0 0 0 0 127 0" result="hardAlpha"/>
<feOffset dy="2"/>
<feGaussianBlur stdDeviation="1"/>
<feComposite in2="hardAlpha" operator="out"/>
<feColorMatrix type="matrix" values="0 0 0 0 0 0 0 0 0 0 0 0 0 0 0 0 0 0 0.25 0"/>
<feBlend mode="normal" in2="BackgroundImageFix" result="effect1_dropShadow_7_242"/>
<feBlend mode="normal" in="SourceGraphic" in2="effect1_dropShadow_7_242" result="shape"/>
</filter>
</defs>
</svg>
