<svg width="111" height="111" viewBox="0 0 111 111" fill="none" xmlns="http://www.w3.org/2000/svg">
<g clip-path="url(#clip0_60_301)">
<path d="M111 55.5C111 24.8482 86.1518 0 55.5 0C24.8482 0 0 24.8482 0 55.5C0 86.1518 24.8482 111 55.5 111C86.1518 111 111 86.1518 111 55.5Z" fill="#0DC143"/>
<path d="M80.3612 30.5516C74.4112 24.4265 66.1863 21.1016 57.7861 21.1016C39.9362 21.1016 25.5862 35.6266 25.7612 53.3015C25.7612 58.9015 27.3363 64.3266 29.9612 69.2265L25.4111 85.8516L42.3863 81.4765C47.1112 84.1015 52.3612 85.3266 57.6111 85.3266C75.2862 85.3266 89.6362 70.8016 89.6362 53.1264C89.6362 44.5515 86.3113 36.5017 80.3612 30.5516ZM57.7861 79.9015C53.0612 79.9015 48.3361 78.6766 44.3112 76.2265L43.2611 75.7015L33.1113 78.3265L35.7362 68.3515L35.0362 67.3016C27.3363 54.8765 31.0111 38.4266 43.6112 30.7267C56.2111 23.0266 72.4862 26.7015 80.1862 39.3016C87.8861 51.9015 84.2113 68.1767 71.6112 75.8766C67.5863 78.5015 62.6861 79.9015 57.7861 79.9015ZM73.1862 60.4765L71.2613 59.6014C71.2613 59.6014 68.4611 58.3765 66.7112 57.5015C66.5362 57.5015 66.3611 57.3266 66.1863 57.3266C65.6611 57.3266 65.3112 57.5015 64.9611 57.6765C64.9611 57.6765 64.7863 57.8516 62.3362 60.6516C62.1612 61.0017 61.8113 61.1765 61.4612 61.1765H61.2861C61.1113 61.1765 60.7612 61.0017 60.5861 60.8266L59.7113 60.4765C57.7861 59.6015 56.0363 58.5516 54.6363 57.1516C54.2862 56.8015 53.7612 56.4516 53.4111 56.1015C52.1862 54.8765 50.9613 53.4766 50.0862 51.9015L49.9111 51.5516C49.7361 51.3766 49.7361 51.2015 49.5613 50.8516C49.5613 50.5015 49.5613 50.1516 49.7361 49.9766C49.7361 49.9766 50.4361 49.1015 50.9613 48.5766C51.3111 48.2265 51.4862 47.7016 51.8363 47.3517C52.1862 46.8265 52.3612 46.1265 52.1862 45.6016C52.0111 44.7265 49.9111 40.0016 49.3862 38.9515C49.0361 38.4266 48.6862 38.2515 48.1613 38.0765H47.6361C47.2862 38.0765 46.7613 38.0765 46.2361 38.0765C45.8862 38.0765 45.5361 38.2515 45.1862 38.2515L45.0112 38.4266C44.6611 38.6016 44.3112 38.9515 43.9611 39.1266C43.6112 39.4765 43.4361 39.8266 43.0863 40.1765C41.8611 41.7515 41.1611 43.6767 41.1611 45.6016C41.1611 47.0016 41.5112 48.4016 42.0362 49.6265L42.2112 50.1517C43.7863 53.4766 45.8862 56.4516 48.6862 59.0765L49.3862 59.7765C49.9111 60.3017 50.4361 60.6516 50.7862 61.1765C54.4612 64.3266 58.6612 66.6016 63.3861 67.8265C63.9113 68.0016 64.6112 68.0016 65.1362 68.1767C65.6611 68.1767 66.3611 68.1767 66.8863 68.1767C67.7611 68.1767 68.8112 67.8265 69.5112 67.4767C70.0361 67.1266 70.3862 67.1266 70.7361 66.7767L71.0862 66.4266C71.4361 66.0765 71.7862 65.9016 72.1361 65.5515C72.4862 65.2016 72.8361 64.8515 73.0112 64.5016C73.3613 63.8016 73.5361 62.9266 73.7112 62.0515C73.7112 61.7017 73.7112 61.1765 73.7112 60.8266C73.7112 60.8266 73.5361 60.6516 73.1862 60.4765Z" fill="white"/>
</g>
<defs>
<clipPath id="clip0_60_301">
<rect width="111" height="111" fill="white"/>
</clipPath>
</defs>
</svg>
